<svg version="1.1" id="Layer_1" xmlns="http://www.w3.org/2000/svg" xmlns:xlink="http://www.w3.org/1999/xlink" x="0px" y="0px"
	 width="178px" height="70px" viewBox="0 0 178 70" enable-background="new 0 0 178 70" xml:space="preserve">
<g>
	<path fill="#FF0000" d="M37.127,5h-8.021c-7.877,0-14.56,5.998-14.56,17.641c0,6.984,3.237,12.135,9.002,14.676L12.79,56.792
		c-0.352,0.636,0,1.129,0.561,1.129h4.993c0.422,0,0.705-0.141,0.845-0.493l9.776-19.123h3.52v19.123c0,0.211,0.21,0.493,0.49,0.493
		h4.363c0.422,0,0.562-0.212,0.562-0.563V5.708C37.9,5.212,37.619,5,37.127,5z M32.485,33.79h-2.956
		c-4.644,0-9.145-3.387-9.145-11.854c0-8.821,4.22-12.419,8.511-12.419h3.589V33.79z"/>
	<path d="M63.565,23.21h-4.36c-0.352,0-0.563,0.282-0.563,0.492v12.811h-8.091V23.703c0-0.351-0.139-0.492-0.49-0.492h-4.363
		c-0.351,0-0.562,0.212-0.562,0.492v33.626c0,0.354,0.141,0.563,0.491,0.563h4.434c0.281,0,0.49-0.21,0.49-0.563V40.962h8.091
		v16.367c0,0.354,0.211,0.563,0.563,0.563h4.36c0.352,0,0.493-0.282,0.493-0.563V23.703C64.059,23.422,63.847,23.21,63.565,23.21z"
		/>
	<path d="M163.141,55.637l-0.564-2.399c-0.066-0.212-0.137-0.282-0.348-0.282c-0.352,0-2.252,0.773-4.994,0.773
		c-5.348,0-7.949-5.148-7.949-13.333c0-7.199,2.182-13.657,5.836-13.657c0.988,0,2.184,0.281,4.082,2.047
		c0.211,0.211,0.35,0.282,0.561,0.282c0.213,0,0.424-0.144,0.635-0.496l1.9-3.103c0.141-0.212,0.211-0.427,0.211-0.637
		c0-0.282-0.281-0.493-0.703-0.704c-2.887-1.482-4.855-1.764-6.543-1.764c-6.613,0-11.748,7.236-11.748,19.583
		c0,10.655,4.924,16.794,11.961,16.794c2.955,0,6.119-1.411,7.385-2.33C163.141,56.2,163.213,55.918,163.141,55.637z"/>
	<path d="M132.57,38.489l8.439-14.787c0.143-0.21,0.07-0.492-0.211-0.492h-4.15c-1.195,0-1.619,0.423-2.037,1.339l-6.334,12.53
		c-0.35,0.775-0.701,1.269-1.053,1.481V23.703c0-0.28-0.141-0.492-0.424-0.492h-4.57c-0.211,0-0.422,0.212-0.422,0.492v33.698
		c0,0.21,0.139,0.492,0.422,0.492h4.57c0.283,0,0.424-0.21,0.424-0.492V39.689c0.209,0.141,0.352,0.351,0.492,0.635l8.018,16.51
		c0.422,0.848,1.057,1.058,1.971,1.058h4.502c0.281,0,0.352-0.282,0.211-0.492L132.57,38.489z"/>
	<path d="M92.266,53.448H91.42c-1.055,0-1.336-0.422-1.336-1.27V23.703c0-0.351-0.141-0.492-0.421-0.492H75.594
		c-0.352,0-0.562,0.212-0.562,0.492v2.541c0,8.537-0.493,18.879-4.995,27.205h-1.548c-0.422,0-0.562,0.212-0.562,0.565
		c0,0,0,8.468,0,10.304c0,0.354,0.282,0.492,0.492,0.492h3.378c0.772,0,1.054-0.564,1.054-1.059v-5.858h15.055v6.425
		c0,0.281,0.208,0.492,0.49,0.492h3.589c0.42,0,0.842-0.35,0.842-1.059v-9.738C92.826,53.66,92.617,53.448,92.266,53.448z
		 M84.668,53.448H74.469c3.589-6.139,4.994-13.052,5.487-21.519c0.139-1.834,0.21-3.075,0.21-4.273h4.502V53.448z"/>
	<path d="M106.615,22.363c-7.596,0-10.973,8.929-10.973,19.372c0,10.655,4.781,17.004,11.816,17.004c3.445,0,6.473-1.339,8.018-2.33
		c0.281-0.141,0.352-0.351,0.281-0.633l-0.562-2.399c-0.07-0.281-0.211-0.422-0.561-0.422c-0.281,0-2.322,0.773-5.207,0.773
		c-5.416,0-7.949-4.726-7.949-10.935c0-0.849,0-1.67,0-1.67s2.742,0.329,4.361,0.329h10.27v-2.964
		C116.109,27.554,112.24,22.363,106.615,22.363z M105.84,37.008c-1.619,0-4.146,0.282-4.146,0.282s0-1.058,0.141-2.188
		c0.631-5.999,2.107-8.363,4.57-8.363c2.25,0,3.658,2.436,4.008,7.871c0.072,1.128,0.072,2.399,0.072,2.399H105.84z"/>
</g>
</svg>
